<?xml version="1.0" encoding="UTF-8" standalone="no"?>
<!-- Created with Inkscape (http://www.inkscape.org/) -->

<svg
   width="793.70099"
   height="400"
   viewBox="0 0 210.00005 105.83333"
   version="1.1"
   id="svg1"
   inkscape:version="1.4.2 (f4327f4, 2025-05-13)"
   sodipodi:docname="logo.svg"
   inkscape:export-filename="logo.png"
   inkscape:export-xdpi="96"
   inkscape:export-ydpi="96"
   xmlns:inkscape="http://www.inkscape.org/namespaces/inkscape"
   xmlns:sodipodi="http://sodipodi.sourceforge.net/DTD/sodipodi-0.dtd"
   xmlns="http://www.w3.org/2000/svg"
   xmlns:svg="http://www.w3.org/2000/svg">
  <sodipodi:namedview
     id="namedview1"
     pagecolor="#ffffff"
     bordercolor="#000000"
     borderopacity="0.25"
     inkscape:showpageshadow="2"
     inkscape:pageopacity="0.0"
     inkscape:pagecheckerboard="0"
     inkscape:deskcolor="#d1d1d1"
     inkscape:document-units="mm"
     inkscape:zoom="1.6628263"
     inkscape:cx="454.34692"
     inkscape:cy="235.7432"
     inkscape:window-width="2544"
     inkscape:window-height="1360"
     inkscape:window-x="7"
     inkscape:window-y="0"
     inkscape:window-maximized="0"
     inkscape:current-layer="g83" />
  <defs
     id="defs1">
    <inkscape:path-effect
       effect="bend_path"
       id="path-effect474"
       is_visible="true"
       lpeversion="1"
       bendpath="m 210.74414,309.70312 c 129.63112,-50.78376 258.25926,-42.89316 386.28906,0"
       prop_scale="1"
       scale_y_rel="false"
       vertical="false"
       hide_knot="false"
       bendpath-nodetypes="cc" />
    <inkscape:path-effect
       effect="bend_path"
       id="path-effect462"
       is_visible="true"
       lpeversion="1"
       bendpath="m 210.74414,309.70312 c 127.95598,-47.21162 256.72939,-46.60375 386.28906,0"
       prop_scale="1"
       scale_y_rel="false"
       vertical="false"
       hide_knot="false"
       bendpath-nodetypes="cc" />
    <linearGradient
       id="linearGradient54"
       inkscape:swatch="gradient">
      <stop
         style="stop-color:#b1710d;stop-opacity:1;"
         offset="0"
         id="stop54" />
      <stop
         style="stop-color:#b1710d;stop-opacity:0;"
         offset="1"
         id="stop55" />
    </linearGradient>
    <rect
       x="133.702"
       y="258.74704"
       width="538.65558"
       height="233.73804"
       id="rect1" />
    <filter
       style="color-interpolation-filters:sRGB"
       id="filter51"
       inkscape:label="filter1"
       x="-0.020943688"
       y="-0.067379543"
       width="1.0418874"
       height="1.1350676">
      <feGaussianBlur
         stdDeviation="0.001 0"
         id="feGaussianBlur51" />
      <feDiffuseLighting
         id="feDiffuseLighting51"
         surfaceScale="3.5"
         diffuseConstant="0.88">
        <feDistantLight
           id="feDistantLight51"
           azimuth="240"
           elevation="35" />
      </feDiffuseLighting>
      <feComponentTransfer
         id="feComponentTransfer51">
        <feFuncR
           id="feFuncR51"
           type="identity" />
        <feFuncG
           id="feFuncG51"
           type="identity" />
        <feFuncB
           id="feFuncB51"
           type="identity" />
        <feFuncA
           id="feFuncA51"
           type="identity"
           tableValues="2" />
      </feComponentTransfer>
      <feBlend
         mode="hard-light"
         id="feBlend51"
         in2="SourceGraphic" />
      <feComposite
         id="feComposite51"
         in2="SourceAlpha"
         operator="in" />
    </filter>
    <filter
       style="color-interpolation-filters:sRGB"
       id="filter52"
       inkscape:label="filter2"
       x="-0.0037049889"
       y="-0.009203963"
       width="1.00741"
       height="1.0184079" />
    <rect
       x="133.702"
       y="258.74704"
       width="538.65558"
       height="233.73804"
       id="rect83" />
    <filter
       style="color-interpolation-filters:sRGB"
       inkscape:label="Drop Shadow"
       id="filter399"
       x="-0.0086968406"
       y="-0.35130648"
       width="1.0188075"
       height="1.7071568">
      <feGaussianBlur
         in="SourceGraphic"
         stdDeviation="0.426 18.217"
         result="blur"
         id="feGaussianBlur398" />
      <feDiffuseLighting
         diffuseConstant="2.5250001"
         surfaceScale="-1.281407"
         lighting-color="#ffffff"
         result="diffuse"
         id="feDiffuseLighting398">
        <feDistantLight
           elevation="83"
           azimuth="241"
           id="feDistantLight398" />
      </feDiffuseLighting>
      <feComposite
         in="diffuse"
         in2="diffuse"
         operator="arithmetic"
         k1="1"
         result="composite1"
         id="feComposite398"
         k2="0"
         k3="0"
         k4="0" />
      <feComposite
         in="composite1"
         in2="SourceGraphic"
         k1="0.14902"
         operator="arithmetic"
         k3="1"
         result="fbSourceGraphic"
         id="feComposite399"
         k2="0"
         k4="0" />
      <feColorMatrix
         result="fbSourceGraphicAlpha"
         in="fbSourceGraphic"
         values="0 0 0 -1 0 0 0 0 -1 0 0 0 0 -1 0 0 0 0 1 0"
         id="feColorMatrix406" />
      <feGaussianBlur
         id="feGaussianBlur406"
         in="fbSourceGraphicAlpha"
         stdDeviation="0.911854"
         result="blur" />
      <feSpecularLighting
         id="feSpecularLighting406"
         in="blur"
         specularExponent="25"
         specularConstant="0.77507597"
         surfaceScale="10"
         lighting-color="#ffffff"
         result="specular">
        <feDistantLight
           id="feDistantLight406"
           elevation="148"
           azimuth="207" />
      </feSpecularLighting>
      <feComposite
         id="feComposite406"
         in="specular"
         in2="fbSourceGraphic"
         k3="1"
         k2="1"
         operator="arithmetic"
         result="composite1"
         k1="0"
         k4="0" />
      <feComposite
         id="feComposite407"
         in="composite1"
         in2="fbSourceGraphicAlpha"
         operator="in"
         result="fbSourceGraphic" />
      <feColorMatrix
         result="fbSourceGraphicAlpha"
         in="fbSourceGraphic"
         values="0 0 0 -1 0 0 0 0 -1 0 0 0 0 -1 0 0 0 0 1 0"
         id="feColorMatrix430" />
      <feFlood
         id="feFlood430"
         result="flood"
         in="fbSourceGraphic"
         flood-opacity="0.498039"
         flood-color="rgb(0,0,0)" />
      <feGaussianBlur
         id="feGaussianBlur430"
         result="blur"
         in="fbSourceGraphic"
         stdDeviation="0.200000" />
      <feOffset
         id="feOffset430"
         result="offset"
         in="blur"
         dx="0.600000"
         dy="0.600000" />
      <feComposite
         id="feComposite430"
         result="comp1"
         operator="in"
         in="flood"
         in2="offset" />
      <feComposite
         id="feComposite431"
         result="comp2"
         operator="over"
         in="fbSourceGraphic"
         in2="comp1" />
    </filter>
    <rect
       x="133.702"
       y="258.74704"
       width="538.65558"
       height="233.73804"
       id="rect433" />
    <rect
       x="133.702"
       y="258.74704"
       width="538.65558"
       height="233.73804"
       id="rect434" />
  </defs>
  <g
     inkscape:label="Layer 1 copy"
     inkscape:groupmode="layer"
     id="g83"
     style="display:inline;stroke:#b1650d;stroke-width:5;stroke-dasharray:none;stroke-opacity:1"
     transform="matrix(1.3720048,0,0,1.3720048,-41.792177,-51.78702)">
    <path
       d="m 243.13319,279.10602 c 3.04308,10.01702 -4.00354,17.23706 -20.26933,23.09872 -2.84369,1.02477 -7.29295,2.5646 -13.30543,4.75348 -2.54241,-7.43786 -5.60862,-15.78516 -9.19688,-24.96684 -3.45483,-8.84023 -6.56039,-16.28193 -9.36435,-22.3846 2.22015,-0.86962 4.44559,-1.72502 6.67613,-2.56616 1.3496,-0.50894 3.29167,-1.27901 6.33485,-2.47028 2.97198,-1.16261 5.35263,-2.04173 7.03129,-2.62655 12.37558,-4.31147 19.70042,-2.47467 21.90429,4.63195 1.71478,5.52952 -0.27021,10.11939 -5.75668,13.89652 l 0.18344,0.55642 c 3.39739,-0.59877 6.60965,-0.32174 9.60506,0.81793 2.98789,1.11488 5.02987,3.54718 6.15761,7.25941 z m -10.51043,3.76455 c -1.59983,-4.89255 -7.03784,-5.94781 -16.25651,-2.65258 -1.81499,0.64877 -3.35713,1.28012 -4.62228,1.88437 1.87913,5.10469 3.73065,9.77086 5.53911,13.98603 0.9398,-0.1229 2.27221,-0.49968 4.01043,-1.12233 4.72901,-1.69399 8.01573,-3.40531 9.87692,-5.23873 1.84624,-1.85149 2.3427,-4.13383 1.45233,-6.85676 z m -9.77999,-19.80533 c -1.4693,-4.40797 -5.28665,-5.63831 -11.44242,-3.46655 -2.82108,0.99527 -5.25588,2.0868 -7.29826,3.25666 1.2135,2.36276 2.91694,6.53602 5.13267,12.55364 1.02779,-0.32282 2.10019,-0.6864 3.21858,-1.09011 8.38643,-3.02724 11.9213,-6.65792 10.38942,-11.25366 z m 49.19331,-14.25592 c -0.11895,3.15563 -0.22409,6.30998 -0.31543,9.46296 -2.21151,-0.27726 -4.36608,-0.15422 -6.45047,0.36697 -4.03711,1.00947 -6.25201,3.38091 -6.63948,7.03784 2.66731,10.02039 4.81437,17.76191 6.40139,23.11211 -3.43954,0.91383 -6.86964,1.8633 -10.28956,2.84824 -1.73565,-7.67364 -3.26322,-13.86405 -4.63792,-18.66108 -1.70765,-5.95893 -3.99217,-11.40949 -6.91879,-16.33692 3.40879,-1.37071 6.83449,-2.7085 10.27646,-4.013 1.21458,2.6344 1.88462,4.20327 2.01146,4.67665 0.21997,-0.0589 0.43998,-0.11773 0.66002,-0.17638 1.58432,-4.22087 4.54133,-6.89248 8.8161,-7.94509 2.00946,-0.49481 4.37739,-0.62356 7.08622,-0.3723 z m 48.72865,28.38236 c -3.0805,0.56858 -6.15487,1.1651 -9.22264,1.7894 -0.65656,-1.31553 -1.05681,-2.38166 -1.19684,-3.20365 -0.21227,0.0362 -0.42453,0.0725 -0.63676,0.10888 -3.00033,3.36868 -6.75532,5.47429 -11.33861,6.37376 -4.32119,0.84803 -7.79461,0.44454 -10.47663,-1.26782 -2.65052,-1.73649 -4.74367,-5.89436 -6.21155,-12.47057 -0.1757,-0.78713 -0.40927,-1.89686 -0.69957,-3.32536 -0.26345,-1.43555 -0.51365,-2.68616 -0.75172,-3.75389 -0.62578,-2.80662 -1.893,-7.27591 -3.80605,-13.31616 3.8732,-1.00289 7.7586,-1.96404 11.65537,-2.88319 0.53895,4.98937 1.26404,9.6814 2.15515,14.0684 1.26858,6.2453 2.61635,10.36788 4.00962,12.33928 1.42502,1.97309 3.55143,2.67494 6.39935,2.13788 3.11626,-0.58765 5.67855,-1.78367 7.71148,-3.6139 -2.3311,-13.52474 -4.06312,-22.59998 -5.24493,-27.39235 3.79332,-0.77623 7.59609,-1.51284 11.40754,-2.20958 0.45552,4.91784 1.27711,11.2259 2.46034,18.98276 0.87583,5.74172 2.14999,11.61402 3.78647,17.63611 0,0 -10e-6,0 -2e-5,0 z m 34.75858,-14.68089 c 0.62428,7.83538 -5.05546,12.05551 -16.76889,13.3996 -4.29871,0.49326 -8.0965,0.52502 -11.43174,0.0622 0.10237,-2.60265 0.21156,-5.20562 0.32757,-7.80889 3.52268,0.70853 6.9351,0.87395 10.27161,0.49111 3.23155,-0.37081 5.43341,-0.85633 6.62546,-1.50237 1.21502,-0.64662 1.76708,-1.57583 1.64781,-2.79402 -0.1852,-1.8916 -2.64345,-3.48448 -7.43212,-4.68104 -4.19555,-1.05465 -7.30823,-2.15323 -9.34401,-3.36582 -2.7907,-1.68858 -4.40587,-3.97481 -4.80086,-6.89125 -0.46463,-3.43067 0.54476,-6.38317 3.0884,-8.83562 2.53863,-2.44763 6.53385,-4.00495 11.94159,-4.57158 5.05957,-0.53014 9.0924,-0.47775 12.04301,0.0862 -0.27357,2.60909 -0.54023,5.21826 -0.79999,7.82748 -3.28394,-0.86885 -6.79126,-1.11551 -10.49009,-0.72794 -4.524,0.47403 -6.64572,1.81959 -6.39754,3.93287 0.12756,1.08618 0.70692,1.9089 1.73232,2.47244 1.02783,0.54051 3.04874,1.14191 6.07833,1.85029 4.17041,0.95349 7.23032,2.10926 9.17647,3.40045 2.78006,1.85039 4.27425,4.41234 4.53267,7.6559 z m 44.276,9.02533 c -3.55958,-0.0211 -7.1192,-0.005 -10.6781,0.0495 0.48896,-6.59779 0.70873,-13.00295 0.6252,-19.22762 -0.0622,-4.63714 -0.73064,-7.65718 -2.02918,-9.07047 -1.29525,-1.43525 -3.41186,-2.12641 -6.33331,-2.04221 -3.09093,0.0891 -6.09588,1.15309 -8.9685,3.18704 0.50306,11.03386 1.0649,20.2759 1.66036,27.60462 -3.55542,0.15932 -7.10908,0.35589 -10.66024,0.58954 -0.2356,-8.0538 -0.71025,-17.75481 -1.43939,-28.98559 -0.67404,-10.38222 -1.67076,-18.93604 -3.05247,-25.74793 4.16952,-0.48997 8.34746,-0.93396 12.53296,-1.33162 -0.0674,8.38362 0.0573,15.70015 0.34288,21.87838 0.18523,-0.009 0.37046,-0.0171 0.5557,-0.0255 3.61916,-3.31738 7.92201,-5.05099 12.81649,-5.15633 4.6343,-0.0997 8.2782,0.82996 10.88559,2.72533 2.64318,1.90048 3.92195,5.25367 3.89349,10.04646 -0.003,0.49591 -0.0512,1.50894 -0.14389,3.04599 -0.0644,1.50893 -0.0978,2.51351 -0.1005,3.00718 -0.0243,4.37677 0.01,10.80503 0.0929,19.45316 -10e-6,0 -2e-5,0 -3e-5,0 z m 72.39191,-32.11583 c -0.19885,1.53955 -3.33665,7.1294 -9.19418,17.27187 -5.76573,10.03386 -8.6215,16.16698 -8.80987,17.94217 -3.09532,-0.32838 -6.19332,-0.63183 -9.29377,-0.90983 0.10495,-1.17045 -0.64623,-4.97853 -2.352,-11.28881 -2.1529,-8.00551 -3.53333,-13.16804 -4.12896,-16.10289 -0.22342,-0.0167 -0.44686,-0.0333 -0.67031,-0.0497 -0.95865,2.72271 -2.99257,7.55164 -6.19519,15.14092 -2.53299,5.91897 -3.80168,9.63947 -3.88261,11.02217 -3.122,-0.18291 -6.24602,-0.3392 -9.37181,-0.46836 0.0622,-1.50943 -1.76613,-8.07452 -5.81845,-19.19482 -4.04997,-11.21713 -6.26904,-17.29173 -6.25192,-18.2811 4.12396,0.0797 8.24263,0.20314 12.35555,0.36921 -0.0431,1.10468 1.03882,5.54999 3.11488,13.57656 2.08666,7.93102 3.02507,12.72938 2.94979,14.17561 0.20377,0.0107 0.40752,0.0215 0.61127,0.0324 0.0937,-1.76343 1.69227,-6.40419 4.91734,-13.71394 3.25137,-7.39187 4.98362,-11.70276 5.08266,-13.16357 3.34263,0.22837 6.68102,0.48428 10.01493,0.7672 -0.0867,1.0234 0.92925,5.53381 2.89728,13.7706 1.97851,8.16766 2.82764,13.00514 2.70098,14.28977 0.18926,0.0186 0.37851,0.0374 0.56774,0.0562 0.14157,-1.42165 1.76611,-5.76286 4.96257,-12.82847 3.24932,-7.13816 5.03347,-11.63391 5.26232,-13.67759 3.51618,0.39232 7.02687,0.81402 10.53176,1.26445 z m 42.86885,25.00527 c -1.30085,6.43379 -4.39396,11.03452 -9.18665,13.87964 -4.79395,2.84586 -9.89557,3.78537 -15.41439,2.85533 -5.25603,-0.88575 -9.50299,-3.23579 -12.82262,-7.11237 -3.30951,-3.89484 -4.61208,-8.8628 -3.78788,-14.9206 0.88756,-6.52348 3.72585,-11.34963 8.61574,-14.39748 4.88932,-3.0475 10.3332,-4.09109 16.21081,-3.09253 5.56971,0.94625 10.0273,3.50504 13.30166,7.60756 3.30757,4.08307 4.30157,9.15516 3.08333,15.18045 z m -10.7967,-0.89312 c 0.68863,-3.71321 0.34517,-6.99399 -1.06773,-9.84327 -1.40715,-2.87267 -3.63241,-4.57596 -6.6511,-5.08498 -2.93547,-0.49498 -5.53049,0.30197 -7.75289,2.37619 -2.19672,2.08038 -3.55121,4.90057 -4.09678,8.4515 -0.573,3.72937 -0.13074,7.01034 1.28817,9.84129 1.42419,2.80766 3.57132,4.44542 6.468,4.93684 2.81708,0.47792 5.30492,-0.29551 7.4934,-2.33467 2.21329,-2.03259 3.66378,-4.81022 4.31893,-8.3429 z m 56.69015,11.77932 c -1.72552,6.33698 -5.12106,10.7318 -10.08684,13.24729 -4.97413,2.5197 -10.13358,3.11053 -15.57915,1.79792 -5.1863,-1.25011 -9.26096,-3.89863 -12.29373,-8.0069 -3.02189,-4.12649 -3.95583,-9.18038 -2.69267,-15.16914 1.36025,-6.44902 4.53648,-11.06259 9.61427,-13.76076 5.07732,-2.69792 10.55382,-3.36117 16.31776,-1.96262 5.46196,1.32528 9.7087,4.17887 12.68131,8.49301 3.00686,4.29686 3.65525,9.42571 2.03905,15.3612 z m -10.68633,-1.61242 c 0.94,-3.66117 0.8231,-6.96041 -0.38434,-9.90089 -1.2002,-2.96368 -3.29227,-4.81538 -6.25578,-5.53072 -2.88184,-0.69562 -5.51636,-0.0797 -7.87353,1.83651 -2.3319,1.924 -3.8816,4.64476 -4.67852,8.15191 -0.83701,3.68356 -0.63129,6.99064 0.58245,9.91733 1.22056,2.90357 3.24706,4.68948 6.10192,5.38078 2.7764,0.6723 5.31145,0.0703 7.633,-1.81689 2.34602,-1.87911 3.98046,-4.55472 4.8748,-8.03803 z M 597.89766,306.8 c -3.03394,-0.90664 -6.07348,-1.79541 -9.11829,-2.66579 0.10126,-0.92525 0.30285,-1.85933 0.60569,-2.80183 -0.1914,-0.0615 -0.38282,-0.123 -0.57427,-0.1844 -3.56435,1.45693 -7.50389,1.50908 -11.86897,0.17941 -4.89979,-1.49256 -8.28978,-4.36601 -10.21173,-8.68828 -1.92137,-4.32097 -2.24593,-8.87414 -0.90172,-13.66784 1.54139,-5.49691 4.50555,-9.8247 8.97249,-12.93642 4.46894,-3.13315 9.69302,-3.81983 15.57023,-2.00827 3.80804,1.17378 6.44743,2.73971 7.91756,4.66121 0.18635,0.0598 0.37267,0.11958 0.55897,0.17947 1.87418,-5.85537 3.45476,-11.84791 4.7198,-17.98102 3.8838,1.13618 7.7554,2.30077 11.6143,3.49289 -2.36318,5.62132 -5.32658,13.79984 -8.93318,24.60877 -3.64728,10.93089 -6.43052,20.23067 -8.35088,27.8121 z m -6.84608,-11.58168 c 2.54164,-7.91985 4.44562,-14.51774 5.71124,-19.83767 -1.4398,-1.77586 -3.43845,-3.06806 -5.98746,-3.86259 -3.50633,-1.09293 -6.49121,-0.65963 -8.92158,1.2768 -2.43254,1.93816 -4.16082,4.6874 -5.21122,8.237 -0.93175,3.14869 -0.92478,6.11369 -0.005,8.89136 0.92765,2.75439 2.79956,4.55763 5.62934,5.43357 3.78218,1.17074 6.70029,1.13596 8.78486,-0.13847 z m -284.11564,29.73841 c 2.00933,10.25964 -4.72984,16.57435 -19.53895,20.26284 -3.95786,0.98578 -8.16966,1.96964 -12.12752,2.95542 -1.8093,-7.64503 -4.02873,-16.25766 -6.66158,-25.75462 -2.53567,-9.1464 -4.84579,-16.86775 -6.97354,-23.23576 2.05102,-0.57086 4.10565,-1.12878 6.16372,-1.67371 1.2302,-0.32573 3.05458,-0.84572 5.84985,-1.63245 2.74569,-0.77203 4.93795,-1.34108 6.48424,-1.70904 11.39791,-2.71228 17.81732,-0.025 19.29054,7.27428 1.14486,5.67237 -0.94683,9.97327 -6.09621,13.02161 l 0.12602,0.57213 c 3.07168,-0.16999 5.91683,0.4984 8.50626,1.9915 2.58825,1.46985 4.23137,4.1197 4.97717,7.9278 z m -9.60175,2.42451 c -1.09596,-5.03321 -5.86462,-6.73831 -14.31086,-4.65718 -1.66222,0.40956 -3.07972,0.83526 -4.24838,1.26904 1.34983,5.26852 2.70343,10.10252 4.04628,14.48595 0.84427,-4.5e-4 2.05444,-0.20079 3.64068,-0.59271 4.31516,-1.06618 7.34928,-2.3424 9.12424,-3.91813 1.76556,-1.59785 2.35741,-3.78843 1.74804,-6.58697 z m -7.3856,-20.76752 c -1.01462,-4.53563 -4.34457,-6.21821 -10.00662,-4.84751 -2.5939,0.62795 -4.84825,1.3965 -6.75587,2.29034 0.93345,2.48297 2.1863,6.81025 3.77835,13.02217 0.93993,-0.18718 1.92233,-0.40921 2.94836,-0.6654 7.6912,-1.92045 11.09254,-5.07562 10.03578,-9.79962 z m 57.84497,27.54593 c -2.73739,0.40462 -5.47043,0.83423 -8.19864,1.2887 -0.55374,-1.34719 -0.88612,-2.43156 -0.99307,-3.25856 -0.18881,0.0244 -0.3776,0.049 -0.56638,0.0736 -2.72767,3.19271 -6.09183,5.08055 -10.16855,5.71241 -3.84333,0.59568 -6.91654,-0.0119 -9.26984,-1.87504 -2.32417,-1.88462 -4.1225,-6.14841 -5.3256,-12.77684 -0.14402,-0.79344 -0.33452,-1.91149 -0.57042,-3.34981 -0.21188,-1.44386 -0.41483,-2.70281 -0.60995,-3.77924 -0.51257,-2.82769 -1.5713,-7.35268 -3.18244,-13.47347 3.48324,-0.76913 6.97615,-1.5007 10.47791,-2.19444 0.38776,4.99879 0.94893,9.71244 1.66354,14.13132 1.01721,6.29009 2.1437,10.47401 3.346,12.51628 1.23088,2.04646 3.10625,2.86805 5.64344,2.49405 2.77653,-0.40929 5.0729,-1.45909 6.91469,-3.17182 -1.78719,-13.61064 -3.13431,-22.74329 -4.08636,-27.5875 3.40447,-0.56851 6.81602,-1.10131 10.23389,-1.59815 0.28876,4.92986 0.87159,11.26165 1.74246,19.06085 0.64457,5.77245 1.63992,11.69528 2.94933,17.78763 0,0 0,0 -10e-6,0 z m 29.33654,-39.34548 c -0.61691,3.07388 -1.21983,6.14888 -1.80879,9.22489 -1.88914,-0.6967 -3.79434,-0.99081 -5.70203,-0.88212 -3.69575,0.21055 -6.01181,2.10413 -6.92922,5.6137 0.74789,10.33885 1.40173,18.3511 1.94214,23.90179 -3.13334,0.22493 -6.26483,0.4827 -9.39375,0.77317 -0.32543,-7.85953 -0.6962,-14.21881 -1.15113,-19.19008 -0.5649,-6.17291 -1.71343,-11.95998 -3.51299,-17.36188 3.20812,-0.6724 6.42644,-1.31309 9.65434,-1.92174 0.64802,2.81814 0.98673,4.48758 1.02285,4.97571 0.20217,-0.015 0.40435,-0.0298 0.60654,-0.0445 2.05834,-3.82957 5.08056,-5.87553 8.99968,-6.08466 1.84198,-0.0983 3.93942,0.23042 6.27236,0.9957 z m 30.24149,-0.28447 c -0.80804,3.03033 -1.60269,6.06297 -2.38385,9.09789 -0.31154,-0.13672 -0.62424,-0.26202 -0.93803,-0.37591 -1.54155,-0.56391 -3.11002,-0.8506 -4.69751,-0.85952 -3.70001,-0.0208 -6.12826,1.7251 -7.26136,5.17096 0.10379,10.36617 0.25829,18.40494 0.45244,23.97888 -3.13771,0.0287 -6.27578,0.0907 -9.41347,0.18584 0.16185,-7.86514 0.18584,-14.23517 0.0399,-19.22558 -0.1812,-6.19647 -0.96845,-12.04403 -2.42955,-17.54748 3.24266,-0.47211 6.49359,-0.91166 9.75217,-1.3183 0.47154,2.85323 0.70577,4.5408 0.71149,5.03023 0.20263,-0.002 0.40526,-0.005 0.6079,-0.007 2.29148,-3.69428 5.43444,-5.54828 9.35801,-5.51218 0.95022,0.009 1.96072,0.13489 3.029,0.37957 1.0069,0.22897 2.06534,0.56277 3.17286,1.00223 z m 40.12818,20.17304 c -0.66217,6.5206 -3.08777,11.42342 -7.1324,14.75936 -4.05315,3.34296 -8.51123,4.83326 -13.48614,4.51867 -4.7381,-0.29962 -8.69999,-2.16012 -11.98994,-5.64191 -3.28052,-3.49885 -4.89863,-8.29532 -4.72602,-14.40749 0.18598,-6.58575 2.26002,-11.68895 6.3784,-15.26049 4.1092,-3.56359 8.92055,-5.19026 14.30967,-4.83105 5.10684,0.34039 9.35361,2.4054 12.64651,6.1279 3.32777,3.70686 4.62038,8.62517 3.99992,14.73501 z m -9.77158,0.27317 c 0.31221,-3.7604 -0.26629,-6.97873 -1.77644,-9.6559 -1.50654,-2.7003 -3.65594,-4.15229 -6.41545,-4.33141 -2.68337,-0.17417 -4.9458,0.8991 -6.7552,3.20207 -1.78603,2.30656 -2.74494,5.2567 -2.91632,8.84482 -0.17995,3.76756 0.50636,6.97963 2.01642,9.63436 1.51316,2.63177 3.5624,4.02107 6.18237,4.19109 2.54801,0.16536 4.70033,-0.87423 6.48656,-3.13624 1.80874,-2.25794 2.8811,-5.17195 3.17806,-8.74879 z m 74.44279,-7.93589 c -0.32136,1.52042 -3.68474,6.89298 -9.93086,16.61906 -6.1514,9.62154 -9.30164,15.53906 -9.6355,17.29469 -2.77417,-0.53222 -5.54904,-1.04381 -8.32435,-1.53427 0.20295,-1.15938 -0.12492,-5.00196 -1.08156,-11.40567 -1.20278,-8.11757 -1.96998,-13.36522 -2.23478,-16.32483 -0.19976,-0.0323 -0.39953,-0.0646 -0.5993,-0.0967 -1.11579,2.64457 -3.39389,7.30796 -6.97767,14.63436 -2.82594,5.70981 -4.3102,9.32072 -4.51095,10.69129 -2.78805,-0.41228 -5.57611,-0.8023 -8.36391,-1.16953 0.19587,-1.49976 -0.83475,-8.16976 -3.4286,-19.54956 -2.58233,-11.47399 -3.99998,-17.68915 -3.89314,-18.67196 3.67416,0.40007 7.34608,0.83721 11.0153,1.31043 -0.14088,1.09536 0.41614,5.60227 1.53386,13.74596 1.1363,8.05105 1.53446,12.89609 1.33279,14.33114 0.18189,0.0258 0.36379,0.0516 0.54568,0.0775 0.24748,-1.74838 2.11204,-6.25011 5.68752,-13.29354 3.60765,-7.1251 5.566,-11.29465 5.79038,-12.74247 2.98733,0.46445 5.97246,0.95207 8.95513,1.46232 -0.17254,1.01178 0.32695,5.57608 1.34529,13.91155 1.0345,8.26978 1.35812,13.14189 1.12498,14.41415 0.1695,0.0313 0.33901,0.0627 0.50851,0.0941 0.25899,-1.40635 2.12851,-5.6207 5.67298,-12.44654 3.59949,-6.89554 5.62972,-11.25757 6.02484,-13.27806 3.1511,0.61793 6.29899,1.26032 9.44336,1.92652 z m 24.34807,32.97019 c -1.98935,7.5976 -8.26045,9.89015 -18.75007,7.41319 -3.84251,-0.90735 -7.09659,-2.10716 -9.78299,-3.62882 0.94968,-2.41917 1.90445,-4.83689 2.86428,-7.25314 2.76031,1.81002 5.61508,3.06389 8.59053,3.76602 2.88108,0.67985 4.92738,0.91476 6.15789,0.67952 1.25166,-0.2288 2.02731,-0.93483 2.32214,-2.12397 0.45787,-1.84669 -1.12933,-4.11833 -4.81758,-6.76619 -3.22767,-2.32464 -5.5113,-4.36352 -6.83686,-6.16003 -1.81026,-2.49002 -2.41993,-5.16919 -1.79069,-8.04551 0.74048,-3.38481 2.56797,-5.84045 5.52194,-7.33971 2.94981,-1.49715 6.82991,-1.69373 11.59082,-0.53704 4.45525,1.08243 7.85619,2.37097 10.18142,3.80833 -1.07408,2.38713 -2.14348,4.77588 -3.20817,7.16623 -2.5153,-1.83241 -5.41466,-3.15299 -8.67864,-3.94639 -3.99083,-0.97009 -6.22731,-0.38037 -6.71082,1.69616 -0.24821,1.06596 -0.0274,2.0269 0.65819,2.88449 0.69371,0.83483 2.21452,2.04646 4.5596,3.6661 3.23829,2.21119 5.47431,4.25042 6.72061,6.07515 1.77583,2.60843 2.2337,5.4937 1.4084,8.64561 z"
       id="text83"
       style="font-weight:bold;font-size:80px;line-height:60px;font-family:Candara;-inkscape-font-specification:'Candara Bold';text-align:center;text-anchor:middle;white-space:pre;fill:none;stroke-width:17.7638;stroke-linecap:round;stroke-linejoin:round;stroke-miterlimit:10;paint-order:stroke markers fill;filter:url(#filter51)"
       transform="scale(0.26458333)"
       aria-label="Brushwood&#10;Burrows"
       inkscape:path-effect="#path-effect474"
       inkscape:original-d="m 249.92383,291.40234 q 0,15.54688 -25.42969,15.54688 -4.41406,0 -13.75,-0.23438 0.50781,-11.79687 0.50781,-26.60156 0,-14.21875 -0.50781,-24.25781 h 6.32813 q 1.79687,0 6.01562,-0.11719 4.25781,-0.11719 6.64063,-0.11719 17.30468,0 17.30468,11.25 0,8.67188 -8.86718,11.48438 v 0.58594 q 4.72656,0.74218 8.24218,3.71093 3.51563,2.92969 3.51563,8.75 z m -10.54688,0.42969 q 0,-7.77344 -13.63281,-7.77344 -2.69531,0 -4.64844,0.19532 0,8.16406 0.35157,15.03906 1.32812,0.3125 3.98437,0.3125 7.22656,0 10.58594,-1.71875 3.35937,-1.75781 3.35937,-6.05469 z m -2.85156,-21.875 q 0,-6.99219 -8.75,-6.99219 -4.02344,0 -7.14844,0.58594 0.42969,3.94531 0.42969,13.55469 1.48438,0.0781 3.125,0.0781 12.34375,0 12.34375,-7.22656 z m 46.52344,-0.35156 -2.26563,9.14062 q -2.89062,-1.17187 -5.85937,-1.17187 -5.74219,0 -7.57813,5.15625 0,15.58594 0.23438,23.98437 h -10.39063 q 0.66407,-11.75781 0.66407,-19.21875 0,-9.29687 -1.95313,-17.61718 l 9.96094,-1.09375 q 0.66406,4.29687 0.66406,5.03906 h 0.625 q 3.59375,-5.50781 9.57031,-5.50781 2.8125,0 6.32813,1.28906 z m 39.96094,37.07031 -9.14063,0.3125 q -0.625,-2.10937 -0.625,-3.35937 h -0.625 q -5.11719,4.21875 -11.95312,4.21875 -6.44532,0 -9.72657,-3.35938 -3.24218,-3.39844 -3.24218,-13.51562 0,-1.21094 0.0391,-3.39844 0.0781,-2.1875 0.0781,-3.82813 0,-4.33593 -0.74218,-13.82812 l 10.89843,-0.39063 q -0.625,7.5 -0.625,14.21875 0,9.57032 1.40625,12.89063 1.44532,3.32031 5.625,3.32031 4.57032,0 7.89063,-2.1875 0,-20.54687 -0.46875,-27.89062 l 10.54687,-0.35157 q -0.39062,7.38282 -0.39062,19.14063 0,8.71094 1.05469,18.00781 z m 34.88281,-10.625 q 0,11.71875 -17.34375,11.71875 -6.32813,0 -11.05469,-1.36719 l 1.32813,-7.69531 q 4.88281,1.75781 9.72656,1.75781 4.6875,0 6.48437,-0.78125 1.83594,-0.78125 1.83594,-2.61718 0,-2.85157 -6.5625,-5.42969 -5.74219,-2.26563 -8.35937,-4.45313 -3.59375,-3.04687 -3.59375,-7.46093 0,-5.19532 3.86718,-8.35938 3.86719,-3.16406 11.25,-3.16406 6.91407,0 10.85938,1.21094 l -1.32813,7.73437 q -4.41406,-1.71875 -9.53125,-1.71875 -6.25,0 -6.25,3.20313 0,1.64062 1.32813,2.65625 1.32812,0.97656 5.42969,2.5 5.66406,2.07031 8.24218,4.25781 3.67188,3.125 3.67188,8.00781 z m 42.30469,10.66406 h -10.39063 q 0.85938,-9.88281 0.85938,-19.21875 0,-6.95312 -1.75782,-9.10156 -1.75781,-2.1875 -5.78125,-2.1875 -4.25781,0 -8.35937,2.85156 0,16.60157 0.39062,27.65625 h -10.39062 q 0.42969,-12.10937 0.42969,-29.02343 0,-15.58594 -1.21094,-25.89844 l 11.05469,-0.625 q -0.58594,12.57812 -0.58594,21.875 h 0.50781 q 5.15625,-4.72656 11.79688,-4.72656 6.28906,0 9.84375,2.85156 3.59375,2.85156 3.59375,10.03906 0,0.74219 -0.11719,3.04688 -0.0781,2.26562 -0.0781,3.00781 0,6.52344 0.19532,19.45312 z m 66.09375,-37.10937 q 0,2.22656 -6.52344,18.28125 -6.48438,16.05469 -6.48438,18.82812 h -9.10156 q 0,-1.79687 -3.20312,-11.05468 -3.98438,-11.5625 -5.07813,-15.74219 h -0.625 q -1.01562,4.02344 -4.84375,15.54687 -3.08594,9.14063 -3.08594,11.25 h -9.14062 q 0,-2.38281 -6.21094,-18.98437 -6.17187,-16.64063 -6.17187,-18.125 h 11.25 q 0,1.60156 3.39843,13.4375 3.4375,11.79687 3.4375,14.02344 h 0.58594 q 0,-2.69532 3.90625,-13.98438 3.90625,-11.32812 3.90625,-13.47656 h 9.17969 q 0,1.48437 3.78906,13.47656 3.82813,11.99219 3.82813,13.98438 h 0.54687 q 0,-2.1875 3.4375,-13.28125 3.47656,-11.13282 3.47656,-14.17969 z m 43.24218,17.69531 q 0,9.84375 -6.05468,15.39063 -6.05469,5.54687 -14.25782,5.54687 -7.8125,0 -13.39843,-5.03906 -5.58594,-5.07813 -5.58594,-14.25781 0,-9.88282 6.09375,-15.46875 6.09375,-5.58594 14.29687,-5.58594 7.77344,0 13.32032,5.11719 5.58593,5.07812 5.58593,14.29687 z m -10.19531,1.17188 q 0,-5.66407 -2.65625,-9.49219 -2.65625,-3.86719 -6.91406,-3.86719 -4.14063,0 -6.75781,3.59375 -2.57813,3.59375 -2.57813,8.98438 0,5.66406 2.65625,9.53125 2.65625,3.82812 6.91406,3.82812 4.14063,0 6.71875,-3.59375 2.61719,-3.59375 2.61719,-8.98437 z m 54.88281,-1.17188 q 0,9.84375 -6.05468,15.39063 -6.05469,5.54687 -14.25782,5.54687 -7.8125,0 -13.39843,-5.03906 -5.58594,-5.07813 -5.58594,-14.25781 0,-9.88282 6.09375,-15.46875 6.09375,-5.58594 14.29687,-5.58594 7.77344,0 13.32032,5.11719 5.58593,5.07812 5.58593,14.29687 z m -10.19531,1.17188 q 0,-5.66407 -2.65625,-9.49219 -2.65625,-3.86719 -6.91406,-3.86719 -4.14063,0 -6.75781,3.59375 -2.57813,3.59375 -2.57813,8.98438 0,5.66406 2.65625,9.53125 2.65625,3.82812 6.91406,3.82812 4.14063,0 6.71875,-3.59375 2.61719,-3.59375 2.61719,-8.98437 z m 53.00781,18.20312 -9.25781,0.3125 q -0.27344,-1.36719 -0.27344,-2.85156 h -0.58593 q -4.29688,3.71094 -10.97657,3.71094 -7.5,0 -11.91406,-5.42969 -4.41406,-5.42969 -4.41406,-12.89063 0,-8.55468 4.80469,-14.88281 4.80468,-6.36719 13.35937,-6.36719 5.54688,0 8.32031,2.07032 h 0.54688 q 0,-9.21875 -0.89844,-18.55469 l 11.05469,-0.3125 q -0.625,9.10156 -0.625,26.17187 0,17.30469 0.85937,29.02344 z m -9.80468,-8.86719 q 0,-12.46093 -0.58594,-20.625 -2.69531,-1.875 -6.44531,-1.875 -5.15625,0 -7.65625,3.82813 -2.5,3.82812 -2.5,9.375 0,4.92187 2.42187,8.51562 2.42188,3.55469 6.71875,3.55469 5.74219,0 8.04688,-2.77344 z m -286.36719,53.59375 q 0,15.54688 -25.42969,15.54688 -4.41406,0 -13.75,-0.23438 0.50781,-11.79687 0.50781,-26.60156 0,-14.21875 -0.50781,-24.25781 h 6.32813 q 1.79687,0 6.01562,-0.11719 4.25781,-0.11719 6.64063,-0.11719 17.30468,0 17.30468,11.25 0,8.67188 -8.86718,11.48438 v 0.58594 q 4.72656,0.74218 8.24218,3.71093 3.51563,2.92969 3.51563,8.75 z m -10.54688,0.42969 q 0,-7.77344 -13.63281,-7.77344 -2.69531,0 -4.64844,0.19532 0,8.16406 0.35157,15.03906 1.32812,0.3125 3.98437,0.3125 7.22656,0 10.58594,-1.71875 3.35937,-1.75781 3.35937,-6.05469 z m -2.85156,-21.875 q 0,-6.99219 -8.75,-6.99219 -4.02344,0 -7.14844,0.58594 0.42969,3.94531 0.42969,13.55469 1.48438,0.0781 3.125,0.0781 12.34375,0 12.34375,-7.22656 z m 55.66406,36.71875 -9.14062,0.3125 q -0.625,-2.10937 -0.625,-3.35937 h -0.625 q -5.11719,4.21875 -11.95313,4.21875 -6.44531,0 -9.72656,-3.35938 -3.24219,-3.39844 -3.24219,-13.51562 0,-1.21094 0.0391,-3.39844 0.0781,-2.1875 0.0781,-3.82813 0,-4.33593 -0.74219,-13.82812 l 10.89844,-0.39063 q -0.625,7.5 -0.625,14.21875 0,9.57032 1.40625,12.89063 1.44531,3.32031 5.625,3.32031 4.57031,0 7.89063,-2.1875 0,-20.54687 -0.46875,-27.89062 l 10.54687,-0.35157 q -0.39062,7.38282 -0.39062,19.14063 0,8.71094 1.05468,18.00781 z m 34.10157,-37.07031 -2.26563,9.14062 q -2.89062,-1.17187 -5.85937,-1.17187 -5.74219,0 -7.57813,5.15625 0,15.58594 0.23438,23.98437 h -10.39063 q 0.66406,-11.75781 0.66406,-19.21875 0,-9.29687 -1.95312,-17.61718 l 9.96094,-1.09375 q 0.66406,4.29687 0.66406,5.03906 h 0.625 q 3.59375,-5.50781 9.57031,-5.50781 2.8125,0 6.32813,1.28906 z m 30.82031,0 -2.26563,9.14062 q -2.89062,-1.17187 -5.85937,-1.17187 -5.74219,0 -7.57813,5.15625 0,15.58594 0.23438,23.98437 h -10.39063 q 0.66407,-11.75781 0.66407,-19.21875 0,-9.29687 -1.95313,-17.61718 l 9.96094,-1.09375 q 0.66406,4.29687 0.66406,5.03906 h 0.625 q 3.59375,-5.50781 9.57031,-5.50781 2.8125,0 6.32813,1.28906 z m 42.69531,17.69531 q 0,9.84375 -6.05469,15.39063 -6.05468,5.54687 -14.25781,5.54687 -7.8125,0 -13.39844,-5.03906 -5.58593,-5.07813 -5.58593,-14.25781 0,-9.88282 6.09375,-15.46875 6.09375,-5.58594 14.29687,-5.58594 7.77344,0 13.32031,5.11719 5.58594,5.07812 5.58594,14.29687 z m -10.19531,1.17188 q 0,-5.66407 -2.65625,-9.49219 -2.65625,-3.86719 -6.91406,-3.86719 -4.14063,0 -6.75782,3.59375 -2.57812,3.59375 -2.57812,8.98438 0,5.66406 2.65625,9.53125 2.65625,3.82812 6.91406,3.82812 4.14063,0 6.71875,-3.59375 2.61719,-3.59375 2.61719,-8.98437 z m 74.64844,-18.86719 q 0,2.22656 -6.52344,18.28125 -6.48438,16.05469 -6.48438,18.82812 h -9.10156 q 0,-1.79687 -3.20312,-11.05468 -3.98438,-11.5625 -5.07813,-15.74219 h -0.625 q -1.01562,4.02344 -4.84375,15.54687 -3.08594,9.14063 -3.08594,11.25 h -9.14062 q 0,-2.38281 -6.21094,-18.98437 -6.17187,-16.64063 -6.17187,-18.125 h 11.25 q 0,1.60156 3.39843,13.4375 3.4375,11.79687 3.4375,14.02344 h 0.58594 q 0,-2.69532 3.90625,-13.98438 3.90625,-11.32812 3.90625,-13.47656 h 9.17969 q 0,1.48437 3.78906,13.47656 3.82813,11.99219 3.82813,13.98438 h 0.54687 q 0,-2.1875 3.4375,-13.28125 3.47656,-11.13282 3.47656,-14.17969 z m 32.14843,26.44531 q 0,11.71875 -17.34375,11.71875 -6.32812,0 -11.05468,-1.36719 l 1.32812,-7.69531 q 4.88281,1.75781 9.72656,1.75781 4.6875,0 6.48438,-0.78125 1.83594,-0.78125 1.83594,-2.61718 0,-2.85157 -6.5625,-5.42969 -5.74219,-2.26563 -8.35938,-4.45313 -3.59375,-3.04687 -3.59375,-7.46093 0,-5.19532 3.86719,-8.35938 3.86719,-3.16406 11.25,-3.16406 6.91406,0 10.85937,1.21094 l -1.32812,7.73437 q -4.41406,-1.71875 -9.53125,-1.71875 -6.25,0 -6.25,3.20313 0,1.64062 1.32812,2.65625 1.32813,0.97656 5.42969,2.5 5.66406,2.07031 8.24219,4.25781 3.67187,3.125 3.67187,8.00781 z" />
    <rect
       style="fill:none;fill-opacity:1;stroke:#b1650d;stroke-width:4.70001;stroke-linecap:round;stroke-linejoin:round;stroke-miterlimit:10;stroke-dasharray:none;stroke-dashoffset:0;stroke-opacity:1;paint-order:stroke markers fill"
       id="rect474"
       width="5.2508492"
       height="6.9215736"
       x="68.022362"
       y="68.897507" />
    <rect
       style="fill:none;fill-opacity:1;stroke:#b1650d;stroke-width:4.70001;stroke-linecap:round;stroke-linejoin:round;stroke-miterlimit:10;stroke-dasharray:none;stroke-dashoffset:0;stroke-opacity:1;paint-order:stroke markers fill"
       id="rect475"
       width="0.23867495"
       height="1.750283"
       x="113.68884"
       y="82.501984" />
    <rect
       style="fill:none;fill-opacity:1;stroke:#b1650d;stroke-width:4.70001;stroke-linecap:round;stroke-linejoin:round;stroke-miterlimit:10;stroke-dasharray:none;stroke-dashoffset:0;stroke-opacity:1;paint-order:stroke markers fill"
       id="rect476"
       width="4.6143823"
       height="3.023216"
       x="127.53198"
       y="66.351639" />
    <rect
       style="fill:none;fill-opacity:1;stroke:#b1650d;stroke-width:4.70001;stroke-linecap:round;stroke-linejoin:round;stroke-miterlimit:10;stroke-dasharray:none;stroke-dashoffset:0;stroke-opacity:1;paint-order:stroke markers fill"
       id="rect477"
       width="2.704983"
       height="1.5911664"
       x="140.89778"
       y="71.125137" />
    <path
       id="rect478"
       style="fill:none;fill-opacity:1;stroke:#b1650d;stroke-width:4.70001;stroke-linecap:round;stroke-linejoin:round;stroke-miterlimit:10;stroke-dasharray:none;stroke-dashoffset:0;stroke-opacity:1;paint-order:stroke markers fill"
       d="m 153.73438,74.865234 c -0.0427,0.6116 -0.0755,1.219119 0.52929,1.5625 0.59147,0.07722 1.28795,0.01159 1.48438,-0.629297 0.083,-0.586363 0.002,-1.269299 -0.6293,-1.462499 -0.59711,-0.07211 -1.03517,-0.0015 -1.38437,0.529296 z" />
    <path
       d="m 243.49475,279.59027 c 2.94631,10.03594 -4.1377,17.22911 -20.50179,22.83317 -4.15079,1.42149 -9.22878,3.09022 -13.37957,4.5117 -2.39445,-7.48865 -5.29508,-15.89139 -8.70163,-25.14402 -3.27873,-8.90548 -6.23602,-16.41059 -8.91186,-22.56793 2.20431,-0.81619 4.41354,-1.62032 6.62756,-2.41232 1.32078,-0.47246 3.28661,-1.21372 6.2887,-2.33646 2.95195,-1.10321 5.3108,-1.93672 6.97797,-2.49159 12.27269,-4.08463 19.51123,-2.17771 21.64674,4.96216 1.65944,5.54817 -0.34395,10.11588 -5.83488,13.815 l 0.17665,0.55889 c 3.3818,-0.55026 6.57173,-0.2321 9.54176,0.94304 2.96271,1.15026 4.97694,3.6039 6.07035,7.32836 z m -10.50929,3.6408 c -1.54317,-4.91836 -6.94242,-6.0323 -16.1483,-2.89938 -1.81326,0.61708 -3.35498,1.21998 -4.62151,1.80036 1.79296,5.1373 3.56454,9.83466 5.30168,14.0812 0.93922,-0.10636 2.27483,-0.46007 4.01817,-1.05409 4.74291,-1.61609 8.04621,-3.28299 9.92426,-5.09049 1.86433,-1.82674 2.38369,-4.10301 1.5257,-6.8376 z m -9.5179,-19.9393 c -1.41425,-4.43021 -5.18418,-5.71268 -11.30007,-3.65421 -2.80368,0.94365 -5.22622,1.98709 -7.26244,3.11486 1.16925,2.38388 2.80126,6.58829 4.91491,12.64314 1.02451,-0.30296 2.09389,-0.64627 3.20935,-1.02938 8.36866,-2.8742 11.91099,-6.46102 10.43825,-11.07443 z m 48.91452,-13.79312 c -0.1202,3.15487 -0.22787,6.30866 -0.32305,9.46129 -2.20024,-0.28635 -4.34365,-0.17361 -6.41827,0.33631 -4.01758,0.98748 -6.22861,3.34264 -6.62915,6.99745 2.61498,10.04133 4.71974,17.79376 6.27937,23.15692 -3.44377,0.89523 -6.8793,1.8223 -10.30602,2.78081 -1.6775,-7.68845 -3.16152,-13.89671 -4.50027,-18.70437 -1.66366,-5.97444 -3.90503,-11.44565 -6.78205,-16.40186 3.39167,-1.33571 6.79891,-2.64245 10.22132,-3.9197 1.19645,2.64405 1.85623,4.21686 1.98061,4.69162 0.21883,-0.0573 0.4377,-0.11444 0.6566,-0.17148 1.59009,-4.20912 4.5329,-6.85912 8.78034,-7.88827 1.99681,-0.48382 4.34892,-0.60088 7.04057,-0.33872 z m 48.63004,28.36355 c -3.0764,0.58191 -6.14708,1.18981 -9.21168,1.82339 -0.66049,-1.31349 -1.06378,-2.37857 -1.2063,-3.2001 -0.21198,0.0368 -0.42395,0.0736 -0.63589,0.11064 -2.98729,3.37665 -6.73777,5.49115 -11.31956,6.39507 -4.31987,0.85225 -7.79379,0.44726 -10.4732,-1.26789 -2.64885,-1.73988 -4.73404,-5.90155 -6.194,-12.4822 -0.17475,-0.78765 -0.40698,-1.89788 -0.69564,-3.32721 -0.26189,-1.43623 -0.51072,-2.68756 -0.7475,-3.75588 -0.62269,-2.80955 -1.883,-7.27949 -3.78496,-13.32652 3.84955,-0.99044 7.71093,-1.94338 11.58353,-2.85829 0.54465,4.98939 1.27284,9.68155 2.16613,14.06913 1.27175,6.24652 2.61962,10.36875 4.01284,12.3406 1.4245,1.97297 3.54909,2.67421 6.39235,2.13354 3.11095,-0.59158 5.66697,-1.79315 7.69068,-3.62824 -2.36979,-13.51637 -4.12828,-22.59095 -5.32124,-27.37866 3.77037,-0.7816 7.55029,-1.527 11.3392,-2.23571 0.47824,4.91443 1.32746,11.21955 2.54381,18.97002 0.90041,5.73735 2.1987,11.60411 3.86145,17.61831 -10e-6,0 -2e-5,0 -2e-5,0 z m 34.62179,-14.90049 c 0.68987,7.82399 -4.94685,12.09876 -16.64819,13.52022 -4.29326,0.52154 -8.08949,0.57529 -11.42522,0.12998 0.0883,-2.6027 0.18307,-5.20571 0.28419,-7.80899 3.52138,0.69007 6.93084,0.83529 10.26044,0.43101 3.2247,-0.39155 5.42069,-0.89289 6.60608,-1.54715 1.2086,-0.65516 1.75268,-1.58817 1.62425,-2.80502 -0.19944,-1.88956 -2.66602,-3.46284 -7.45272,-4.62786 -4.19365,-1.02697 -7.30589,-2.10814 -9.34335,-3.3094 -2.79357,-1.67326 -4.41644,-3.95157 -4.82715,-6.86528 -0.48315,-3.42757 0.50503,-6.38363 3.02149,-8.84785 2.51184,-2.4597 6.47734,-4.03733 11.85738,-4.6389 5.03412,-0.56289 9.05035,-0.54112 11.99506,-5.6e-4 -0.25016,2.61016 -0.49373,5.22034 -0.73072,7.83053 -3.28071,-0.84292 -6.77755,-1.06387 -10.45992,-0.65197 -4.5034,0.50374 -6.60806,1.85984 -6.34615,3.9714 0.13458,1.08504 0.71758,1.90413 1.74362,2.46123 1.02798,0.53392 3.04733,1.123 6.07321,1.8104 4.16592,0.92479 7.22695,2.05624 9.17956,3.33189 2.78884,1.82787 4.30244,4.3761 4.58814,7.61632 z m 44.32723,8.57948 c -3.55895,0.0191 -7.11711,0.075 -10.67389,0.16735 0.41789,-6.60122 0.5682,-13.00728 0.41758,-19.22935 -0.11221,-4.63525 -0.81228,-7.64714 -2.1235,-9.04572 -1.30827,-1.42067 -3.42788,-2.08834 -6.34199,-1.97335 -3.08313,0.12167 -6.06977,1.21592 -8.91534,3.27728 0.61112,11.02541 1.26304,20.25689 1.93036,27.57767 -3.55172,0.19424 -7.10124,0.42434 -10.64798,0.68993 -0.3084,-8.04924 -0.87112,-17.74044 -1.70193,-28.9609 -0.76794,-10.37149 -1.8408,-18.91381 -3.27905,-25.71042 4.14554,-0.52576 8.30099,-1.00832 12.46571,-1.4471 0.0167,8.38137 0.21333,15.69322 0.55928,21.86658 0.18462,-0.0104 0.36926,-0.0207 0.5539,-0.0309 3.57621,-3.35167 7.84866,-5.12892 12.73001,-5.28758 4.62201,-0.15024 8.26837,0.73712 10.89225,2.60191 2.65952,1.86939 3.97434,5.20682 3.99969,9.9995 0.003,0.49586 -0.0342,1.50939 -0.10955,3.04732 -0.0475,1.50952 -0.0695,2.51432 -0.0667,3.00799 0.0249,4.37595 0.13119,10.80417 0.31115,19.44979 -10e-6,0 -2e-5,0 -3e-5,0 z m 72.2013,-32.81891 c -0.18862,1.54548 -3.2987,7.14766 -9.09132,17.34009 -5.6974,10.07595 -8.50232,16.244 -8.67539,18.01694 -3.09978,-0.30254 -6.20216,-0.57873 -9.30678,-0.82822 0.0941,-1.17096 -0.69229,-4.97485 -2.46062,-11.27008 -2.23418,-7.99342 -3.66681,-13.13171 -4.2945,-16.06748 -0.22409,-0.0145 -0.44819,-0.0289 -0.67231,-0.0431 -0.93464,2.73671 -2.92164,7.57949 -6.05106,15.20725 -2.47445,5.94568 -3.70454,9.68181 -3.771,11.06487 -3.12509,-0.15029 -6.25178,-0.27306 -9.37973,-0.36797 0.0457,-1.50926 -1.85433,-8.05746 -6.03436,-19.13066 -4.17898,-11.17063 -6.47043,-17.21688 -6.46458,-18.20636 4.1289,0.0297 8.25464,0.10447 12.37655,0.22361 -0.031,1.10624 1.10216,5.53747 3.26862,13.54298 2.17563,7.90842 3.16576,12.69904 3.10588,14.14564 0.20405,0.008 0.40809,0.0171 0.61212,0.0258 0.075,-1.76357 1.62521,-6.42467 4.77884,-13.76869 3.18002,-7.42854 4.87279,-11.75581 4.95712,-13.21908 3.35393,0.19439 6.70471,0.41779 10.05199,0.66984 -0.0772,1.02625 0.98653,5.52498 3.0366,13.74826 2.0592,8.15112 2.95186,12.98543 2.8366,14.27018 0.18968,0.017 0.37935,0.0341 0.56901,0.0513 0.12901,-1.42159 1.71711,-5.78167 4.85993,-12.87394 3.19644,-7.16812 4.94962,-11.67564 5.16217,-13.72321 3.53348,0.3659 7.06236,0.76337 10.58622,1.19201 z m 43.16458,24.87757 c -1.29742,6.43233 -4.40304,11.03743 -9.18712,13.8835 -4.79395,2.85193 -9.89219,3.80421 -15.4159,2.89545 -5.26072,-0.86549 -9.51994,-3.19328 -12.86594,-7.05199 -3.33547,-3.87643 -4.67505,-8.83732 -3.89027,-14.90172 0.84511,-6.53059 3.65836,-11.37614 8.55066,-14.44868 4.89165,-3.07213 10.35995,-4.13748 16.27642,-3.15249 5.60649,0.93338 10.10206,3.48984 13.40543,7.59294 3.33674,4.08366 4.34199,9.15796 3.12672,15.18299 z m -10.83519,-0.88764 c 0.68017,-3.71471 0.326,-6.99528 -1.10348,-9.84301 -1.42365,-2.87085 -3.66724,-4.57057 -6.7029,-5.07149 -2.95195,-0.4871 -5.55519,0.31924 -7.77535,2.40272 -2.19447,2.08965 -3.53715,4.91675 -4.06435,8.47096 -0.55369,3.73277 -0.0918,7.01241 1.3439,9.83733 1.44099,2.80184 3.59808,4.43041 6.5003,4.91171 2.82248,0.46808 5.31049,-0.31225 7.49679,-2.35652 2.21099,-2.03759 3.65803,-4.81777 4.30509,-8.3517 z m 56.87986,12.02104 c -1.78446,6.31767 -5.23007,10.67551 -10.21899,13.14815 -4.99877,2.47752 -10.15885,3.0342 -15.59804,1.69697 -5.18025,-1.27357 -9.24622,-3.93139 -12.27632,-8.04521 -3.01849,-4.13107 -3.95611,-9.18579 -2.68986,-15.17268 1.36358,-6.44706 4.55126,-11.05701 9.66162,-13.73787 5.10973,-2.68054 10.62985,-3.31695 16.43548,-1.87715 5.50143,1.36437 9.77244,4.25888 12.74168,8.60409 3.0039,4.32834 3.61591,9.46602 1.94443,15.3837 z m -10.72212,-1.71375 c 0.96488,-3.65339 0.86613,-6.95326 -0.33503,-9.90395 -1.1936,-2.97343 -3.29295,-4.84183 -6.27368,-5.5766 -2.89856,-0.71451 -5.55157,-0.11273 -7.92527,1.7924 -2.34851,1.9132 -3.90891,4.62817 -4.7148,8.1323 -0.8464,3.68026 -0.64562,6.98804 0.56291,9.9187 1.21557,2.90791 3.23847,4.70137 6.09425,5.40728 2.7773,0.68652 5.31849,0.10053 7.6558,-1.7701 2.36151,-1.86215 4.01788,-4.52438 4.93582,-8.00003 z m 47.31172,33.80022 c -3.01619,-0.974 -6.03935,-1.92551 -9.06907,-2.85422 0.11867,-0.92304 0.33772,-1.85303 0.65829,-2.78947 -0.19049,-0.0652 -0.38101,-0.13038 -0.57157,-0.19544 -3.59536,1.38829 -7.53438,1.37036 -11.87922,-0.0267 -4.87674,-1.56805 -8.22797,-4.48321 -10.10281,-8.82865 -1.87412,-4.34378 -2.15627,-8.89954 -0.76067,-13.67653 1.60018,-5.47728 4.62307,-9.77261 9.15174,-12.8177 4.53415,-3.06867 9.81805,-3.67289 15.73204,-1.74853 3.83144,1.24672 6.4765,2.86985 7.93229,4.82417 0.18733,0.0638 0.37462,0.12769 0.56187,0.19166 1.9828,-5.81837 3.67111,-11.7803 5.03811,-17.89103 3.9251,1.22567 7.83776,2.4869 11.73732,3.78315 -2.49475,5.5688 -5.6352,13.67432 -9.47658,24.40516 -3.88245,10.84558 -6.86662,20.09003 -8.95174,27.6241 z m -6.63007,-11.72438 c 2.69053,-7.87076 4.7163,-14.42764 6.07735,-19.72479 -1.42362,-1.80717 -3.42072,-3.14137 -5.98038,-3.98535 -3.52117,-1.16101 -6.53694,-0.77911 -9.0081,1.11719 -2.47379,1.89833 -4.24403,4.62128 -5.34267,8.15498 -0.97451,3.13445 -1.00371,6.09957 -0.11895,8.89067 0.89325,2.7683 2.74243,4.59983 5.56395,5.52385 3.77133,1.23508 6.69511,1.25676 8.8088,0.0235 z m -284.0803,30.59036 c 2.01844,10.2491 -4.77245,16.61756 -19.79751,20.30821 -2.62797,0.64551 -6.73675,1.58948 -12.31007,2.94047 -1.75555,-7.66332 -3.91775,-16.29159 -6.49021,-25.81166 -2.47671,-9.1657 -4.73927,-16.90825 -6.82567,-23.29176 2.05854,-0.5583 4.12013,-1.10505 6.18464,-1.64017 1.22398,-0.31726 3.07429,-0.83415 5.86727,-1.60827 2.75446,-0.7627 4.94925,-1.32563 6.50007,-1.69042 11.41568,-2.68528 17.84538,-0.0188 19.32398,7.28622 1.14808,5.67203 -0.95058,9.98017 -6.13576,13.03305 l 0.12547,0.57242 c 3.08908,-0.17143 5.94853,0.49353 8.55209,1.98226 2.60197,1.46524 4.2558,4.11188 5.0057,7.91965 z m -9.67867,2.4468 c -1.09285,-5.03843 -5.88939,-6.73091 -14.40279,-4.66179 -1.67637,0.40742 -3.10666,0.83051 -4.28682,1.26193 1.32732,5.27705 2.66087,10.11804 3.98778,14.50883 0.85335,6.9e-4 2.07832,-0.19847 3.68378,-0.58986 4.36723,-1.0647 7.43806,-2.34591 9.23497,-3.92463 1.78796,-1.60127 2.39036,-3.79468 1.78308,-6.59448 z m -7.3814,-20.77702 c -1.00915,-4.53957 -4.34569,-6.22106 -10.02678,-4.8633 -2.60362,0.62225 -4.86798,1.38398 -6.78627,2.27128 0.92321,2.48724 2.15861,6.82321 3.72377,13.04399 0.9466,-0.18467 1.93605,-0.40438 2.96937,-0.6585 7.74813,-1.90544 11.17011,-5.06919 10.1199,-9.79349 z m 58.23517,27.29597 c -2.75271,0.42696 -5.50224,0.878 -8.24822,1.35283 -0.5644,-1.34301 -0.90437,-2.42501 -1.01608,-3.25118 -0.18999,0.0258 -0.37997,0.0517 -0.56994,0.0777 -2.73124,3.21236 -6.11557,5.12433 -10.22583,5.78173 -3.87515,0.6198 -6.97857,0.0285 -9.3549,-1.82371 -2.34789,-1.8746 -4.16293,-6.1314 -5.38078,-12.7585 -0.14578,-0.79325 -0.33864,-1.91087 -0.57757,-3.34888 -0.21475,-1.44355 -0.42038,-2.70226 -0.61789,-3.77831 -0.51908,-2.82808 -1.58879,-7.34809 -3.21474,-13.46692 3.49327,-0.77943 6.99478,-1.52406 10.5039,-2.23337 0.40533,4.99755 0.98265,9.70892 1.71341,14.12518 1.04028,6.28678 2.18431,10.46458 3.40091,12.5012 1.245,2.04002 3.13681,2.85105 5.69076,2.46095 2.79461,-0.42687 5.10198,-1.49256 6.94669,-3.21816 -1.86378,-13.59568 -3.26382,-22.72281 -4.24325,-27.55851 3.40931,-0.5894 6.82481,-1.14513 10.24591,-1.66671 0.32193,4.9259 0.94741,11.25319 1.87118,19.04357 0.68376,5.76633 1.72076,11.68044 3.07645,17.76104 -1e-5,0 -1e-5,0 -1e-5,0 z m 29.10833,-39.5981 c -0.58702,3.07885 -1.16054,6.15862 -1.7206,9.23921 -1.89919,-0.67791 -3.8104,-0.95351 -5.72056,-0.82677 -3.70033,0.2455 -6.00462,2.15913 -6.89442,5.67575 0.83828,10.32933 1.56213,18.33038 2.15196,23.8752 -3.14717,0.25397 -6.29358,0.54001 -9.43866,0.85775 -0.38414,-7.85339 -0.80434,-14.20991 -1.29816,-19.17464 -0.61331,-6.16614 -1.80941,-11.94191 -3.65242,-17.32755 3.20856,-0.69785 6.42652,-1.36546 9.65348,-2.00232 0.67289,2.81159 1.02644,4.4769 1.0668,4.96476 0.2024,-0.0168 0.40481,-0.0334 0.60722,-0.0499 2.02904,-3.84653 5.03606,-5.91913 8.95704,-6.16564 1.84292,-0.11587 3.94548,0.19232 6.28832,0.93413 z m 30.25852,-0.60586 c -0.77317,3.03905 -1.5327,6.08015 -2.27854,9.12324 -0.74787,-0.31882 -1.50163,-0.57231 -2.26043,-0.7604 -1.12111,-0.28024 -2.2533,-0.41754 -3.39371,-0.41176 -3.70403,0.0188 -6.11607,1.78986 -7.21345,5.24665 0.21644,10.36322 0.45839,18.3971 0.71361,23.96839 -3.1465,0.0602 -6.29397,0.15373 -9.44183,0.28006 0.0823,-7.86321 0.0409,-14.23279 -0.15658,-19.21924 -0.24522,-6.19245 -1.09415,-12.0301 -2.61262,-17.51673 3.24093,-0.50475 6.4899,-0.97786 9.7465,-1.41882 0.50268,2.84763 0.75541,4.53204 0.76643,5.02142 0.20281,-0.004 0.40562,-0.009 0.60843,-0.013 2.25367,-3.71748 5.3781,-5.60495 9.30451,-5.61168 0.54338,-9.3e-4 1.10685,0.0362 1.69,0.11173 1.39801,0.17912 2.90972,0.57825 4.52768,1.20016 z m 40.25969,19.76893 c -0.60586,6.5275 -2.98206,11.45475 -6.97827,14.82962 -4.00545,3.38267 -8.42789,4.91748 -13.38656,4.65301 -4.72263,-0.25188 -8.69123,-2.07221 -12.01076,-5.52065 -3.31029,-3.46559 -4.97947,-8.24525 -4.87538,-14.3594 0.11215,-6.58784 2.1262,-11.71335 6.20156,-15.32943 4.06605,-3.60783 8.85665,-5.28604 14.24429,-4.98135 5.10539,0.28873 9.36747,2.3134 12.68807,6.00625 3.35553,3.67715 4.68481,8.58493 4.11705,14.70195 z m -9.73832,0.36518 c 0.27644,-3.76447 -0.33024,-6.97798 -1.86302,-9.64111 -1.52936,-2.68624 -3.68969,-4.11729 -6.44704,-4.26841 -2.68127,-0.14695 -4.9297,0.95009 -6.71213,3.27234 -1.75913,2.32568 -2.6848,5.28625 -2.81759,8.8768 -0.13943,3.77007 0.57979,6.97554 2.11364,9.61529 1.53671,2.61676 3.59389,3.98544 6.20663,4.12906 2.54097,0.13968 4.67503,-0.92159 6.43358,-3.2018 1.78087,-2.27621 2.82299,-5.20167 3.08593,-8.78217 z m 74.12242,-8.37429 c -0.32383,1.52754 -3.68085,6.8827 -9.89427,16.62542 -6.11141,9.62564 -9.23061,15.56914 -9.55995,17.31801 -2.74568,-0.52 -5.49373,-1.01766 -8.24381,-1.49264 0.19876,-1.1579 -0.1309,-5.00152 -1.09687,-11.39627 -1.21731,-8.12395 -1.99838,-13.33739 -2.27484,-16.31011 -0.19902,-0.0312 -0.39805,-0.0624 -0.59709,-0.0934 -1.10453,2.66028 -3.34611,7.3171 -6.87973,14.67644 -2.78243,5.72694 -4.23851,9.35195 -4.43116,10.72228 -2.76819,-0.39165 -5.53776,-0.75982 -8.30837,-1.10419 0.18494,-1.49652 -0.87507,-8.16821 -3.53824,-19.5235 -2.65351,-11.45448 -4.12272,-17.65914 -4.02398,-18.64311 3.67105,0.36881 7.33927,0.77649 11.00402,1.22244 -0.13358,1.09977 0.45424,5.59699 1.61757,13.73646 1.18044,8.04086 1.60053,12.88808 1.40808,14.32208 0.18092,0.0244 0.36184,0.0489 0.54275,0.0735 0.23648,-1.74784 2.06597,-6.26838 5.58992,-13.33328 3.5577,-7.15105 5.49145,-11.3265 5.70888,-12.77815 2.98164,0.44752 5.96036,0.91996 8.93581,1.41698 -0.16949,1.01674 0.34575,5.57002 1.3774,13.9036 1.04655,8.2598 1.37008,13.13563 1.14076,14.40487 0.16818,0.0305 0.33634,0.0611 0.5045,0.0918 0.25504,-1.40386 2.10582,-5.63119 5.62309,-12.46358 3.57459,-6.9074 5.59495,-11.26648 5.98813,-13.29006 3.14029,0.61125 6.27623,1.24949 9.4074,1.91431 z m 23.97695,32.99315 c -2.04808,7.58311 -8.2566,9.83423 -18.58196,7.36035 -3.78643,-0.9072 -6.99339,-2.10192 -9.64263,-3.61787 0.94786,-2.41863 1.90142,-4.83558 2.86067,-7.25084 2.72541,1.8058 5.54202,3.05767 8.47934,3.76111 2.84429,0.68116 4.86393,0.91962 6.08223,0.68706 1.23874,-0.226 2.01141,-0.92921 2.31273,-2.11629 0.46793,-1.84348 -1.08225,-4.11807 -4.71932,-6.76936 -3.18339,-2.32804 -5.43812,-4.36506 -6.74651,-6.16116 -1.78604,-2.48857 -2.38447,-5.16571 -1.75096,-8.04053 0.74547,-3.38291 2.56905,-5.83736 5.5148,-7.33257 2.94088,-1.49274 6.80765,-1.68241 11.54164,-0.50886 4.42967,1.0981 7.80616,2.40495 10.10743,3.85514 -1.08906,2.37888 -2.17266,4.7597 -3.25079,7.14244 -2.48264,-1.84402 -5.355,-3.17654 -8.59489,-3.97997 -3.96224,-0.98255 -6.18876,-0.39531 -6.67898,1.67827 -0.25174,1.06484 -0.0367,2.02565 0.63938,2.88364 0.68492,0.83602 2.18758,2.04858 4.50402,3.67387 3.1979,2.21832 5.3973,4.26552 6.6152,6.09344 1.73558,2.61343 2.15782,5.49787 1.3086,8.64213 z"
       id="text1"
       style="font-weight:bold;font-size:80px;line-height:60px;font-family:Candara;-inkscape-font-specification:'Candara Bold';text-align:center;letter-spacing:0px;text-anchor:middle;white-space:pre;display:inline;fill:#eed39f;stroke:none;stroke-width:3.02362;stroke-linecap:round;stroke-linejoin:round;stroke-miterlimit:10;paint-order:stroke markers fill;filter:url(#filter399)"
       aria-label="Brushwood&#10;Burrows"
       transform="scale(0.26458333)"
       inkscape:original-d="m 249.92383,291.40234 q 0,15.54688 -25.42969,15.54688 -4.41406,0 -13.75,-0.23438 0.50781,-11.79687 0.50781,-26.60156 0,-14.21875 -0.50781,-24.25781 h 6.32813 q 1.79687,0 6.01562,-0.11719 4.25781,-0.11719 6.64063,-0.11719 17.30468,0 17.30468,11.25 0,8.67188 -8.86718,11.48438 v 0.58594 q 4.72656,0.74218 8.24218,3.71093 3.51563,2.92969 3.51563,8.75 z m -10.54688,0.42969 q 0,-7.77344 -13.63281,-7.77344 -2.69531,0 -4.64844,0.19532 0,8.16406 0.35157,15.03906 1.32812,0.3125 3.98437,0.3125 7.22656,0 10.58594,-1.71875 3.35937,-1.75781 3.35937,-6.05469 z m -2.85156,-21.875 q 0,-6.99219 -8.75,-6.99219 -4.02344,0 -7.14844,0.58594 0.42969,3.94531 0.42969,13.55469 1.48438,0.0781 3.125,0.0781 12.34375,0 12.34375,-7.22656 z m 46.52344,-0.35156 -2.26563,9.14062 q -2.89062,-1.17187 -5.85937,-1.17187 -5.74219,0 -7.57813,5.15625 0,15.58594 0.23438,23.98437 h -10.39063 q 0.66407,-11.75781 0.66407,-19.21875 0,-9.29687 -1.95313,-17.61718 l 9.96094,-1.09375 q 0.66406,4.29687 0.66406,5.03906 h 0.625 q 3.59375,-5.50781 9.57031,-5.50781 2.8125,0 6.32813,1.28906 z m 39.96094,37.07031 -9.14063,0.3125 q -0.625,-2.10937 -0.625,-3.35937 h -0.625 q -5.11719,4.21875 -11.95312,4.21875 -6.44532,0 -9.72657,-3.35938 -3.24218,-3.39844 -3.24218,-13.51562 0,-1.21094 0.0391,-3.39844 0.0781,-2.1875 0.0781,-3.82813 0,-4.33593 -0.74218,-13.82812 l 10.89843,-0.39063 q -0.625,7.5 -0.625,14.21875 0,9.57032 1.40625,12.89063 1.44532,3.32031 5.625,3.32031 4.57032,0 7.89063,-2.1875 0,-20.54687 -0.46875,-27.89062 l 10.54687,-0.35157 q -0.39062,7.38282 -0.39062,19.14063 0,8.71094 1.05469,18.00781 z m 34.88281,-10.625 q 0,11.71875 -17.34375,11.71875 -6.32813,0 -11.05469,-1.36719 l 1.32813,-7.69531 q 4.88281,1.75781 9.72656,1.75781 4.6875,0 6.48437,-0.78125 1.83594,-0.78125 1.83594,-2.61718 0,-2.85157 -6.5625,-5.42969 -5.74219,-2.26563 -8.35937,-4.45313 -3.59375,-3.04687 -3.59375,-7.46093 0,-5.19532 3.86718,-8.35938 3.86719,-3.16406 11.25,-3.16406 6.91407,0 10.85938,1.21094 l -1.32813,7.73437 q -4.41406,-1.71875 -9.53125,-1.71875 -6.25,0 -6.25,3.20313 0,1.64062 1.32813,2.65625 1.32812,0.97656 5.42969,2.5 5.66406,2.07031 8.24218,4.25781 3.67188,3.125 3.67188,8.00781 z m 42.30469,10.66406 h -10.39063 q 0.85938,-9.88281 0.85938,-19.21875 0,-6.95312 -1.75782,-9.10156 -1.75781,-2.1875 -5.78125,-2.1875 -4.25781,0 -8.35937,2.85156 0,16.60157 0.39062,27.65625 h -10.39062 q 0.42969,-12.10937 0.42969,-29.02343 0,-15.58594 -1.21094,-25.89844 l 11.05469,-0.625 q -0.58594,12.57812 -0.58594,21.875 h 0.50781 q 5.15625,-4.72656 11.79688,-4.72656 6.28906,0 9.84375,2.85156 3.59375,2.85156 3.59375,10.03906 0,0.74219 -0.11719,3.04688 -0.0781,2.26562 -0.0781,3.00781 0,6.52344 0.19532,19.45312 z m 66.09375,-37.10937 q 0,2.22656 -6.52344,18.28125 -6.48438,16.05469 -6.48438,18.82812 h -9.10156 q 0,-1.79687 -3.20312,-11.05468 -3.98438,-11.5625 -5.07813,-15.74219 h -0.625 q -1.01562,4.02344 -4.84375,15.54687 -3.08594,9.14063 -3.08594,11.25 h -9.14062 q 0,-2.38281 -6.21094,-18.98437 -6.17187,-16.64063 -6.17187,-18.125 h 11.25 q 0,1.60156 3.39843,13.4375 3.4375,11.79687 3.4375,14.02344 h 0.58594 q 0,-2.69532 3.90625,-13.98438 3.90625,-11.32812 3.90625,-13.47656 h 9.17969 q 0,1.48437 3.78906,13.47656 3.82813,11.99219 3.82813,13.98438 h 0.54687 q 0,-2.1875 3.4375,-13.28125 3.47656,-11.13282 3.47656,-14.17969 z m 43.24218,17.69531 q 0,9.84375 -6.05468,15.39063 -6.05469,5.54687 -14.25782,5.54687 -7.8125,0 -13.39843,-5.03906 -5.58594,-5.07813 -5.58594,-14.25781 0,-9.88282 6.09375,-15.46875 6.09375,-5.58594 14.29687,-5.58594 7.77344,0 13.32032,5.11719 5.58593,5.07812 5.58593,14.29687 z m -10.19531,1.17188 q 0,-5.66407 -2.65625,-9.49219 -2.65625,-3.86719 -6.91406,-3.86719 -4.14063,0 -6.75781,3.59375 -2.57813,3.59375 -2.57813,8.98438 0,5.66406 2.65625,9.53125 2.65625,3.82812 6.91406,3.82812 4.14063,0 6.71875,-3.59375 2.61719,-3.59375 2.61719,-8.98437 z m 54.88281,-1.17188 q 0,9.84375 -6.05468,15.39063 -6.05469,5.54687 -14.25782,5.54687 -7.8125,0 -13.39843,-5.03906 -5.58594,-5.07813 -5.58594,-14.25781 0,-9.88282 6.09375,-15.46875 6.09375,-5.58594 14.29687,-5.58594 7.77344,0 13.32032,5.11719 5.58593,5.07812 5.58593,14.29687 z m -10.19531,1.17188 q 0,-5.66407 -2.65625,-9.49219 -2.65625,-3.86719 -6.91406,-3.86719 -4.14063,0 -6.75781,3.59375 -2.57813,3.59375 -2.57813,8.98438 0,5.66406 2.65625,9.53125 2.65625,3.82812 6.91406,3.82812 4.14063,0 6.71875,-3.59375 2.61719,-3.59375 2.61719,-8.98437 z m 53.00781,18.20312 -9.25781,0.3125 q -0.27344,-1.36719 -0.27344,-2.85156 h -0.58593 q -4.29688,3.71094 -10.97657,3.71094 -7.5,0 -11.91406,-5.42969 -4.41406,-5.42969 -4.41406,-12.89063 0,-8.55468 4.80469,-14.88281 4.80468,-6.36719 13.35937,-6.36719 5.54688,0 8.32031,2.07032 h 0.54688 q 0,-9.21875 -0.89844,-18.55469 l 11.05469,-0.3125 q -0.625,9.10156 -0.625,26.17187 0,17.30469 0.85937,29.02344 z m -9.80468,-8.86719 q 0,-12.46093 -0.58594,-20.625 -2.69531,-1.875 -6.44531,-1.875 -5.15625,0 -7.65625,3.82813 -2.5,3.82812 -2.5,9.375 0,4.92187 2.42187,8.51562 2.42188,3.55469 6.71875,3.55469 5.74219,0 8.04688,-2.77344 z m -286.36719,53.59375 q 0,15.54688 -25.42969,15.54688 -4.41406,0 -13.75,-0.23438 0.50781,-11.79687 0.50781,-26.60156 0,-14.21875 -0.50781,-24.25781 h 6.32813 q 1.79687,0 6.01562,-0.11719 4.25781,-0.11719 6.64063,-0.11719 17.30468,0 17.30468,11.25 0,8.67188 -8.86718,11.48438 v 0.58594 q 4.72656,0.74218 8.24218,3.71093 3.51563,2.92969 3.51563,8.75 z m -10.54688,0.42969 q 0,-7.77344 -13.63281,-7.77344 -2.69531,0 -4.64844,0.19532 0,8.16406 0.35157,15.03906 1.32812,0.3125 3.98437,0.3125 7.22656,0 10.58594,-1.71875 3.35937,-1.75781 3.35937,-6.05469 z m -2.85156,-21.875 q 0,-6.99219 -8.75,-6.99219 -4.02344,0 -7.14844,0.58594 0.42969,3.94531 0.42969,13.55469 1.48438,0.0781 3.125,0.0781 12.34375,0 12.34375,-7.22656 z m 55.66406,36.71875 -9.14062,0.3125 q -0.625,-2.10937 -0.625,-3.35937 h -0.625 q -5.11719,4.21875 -11.95313,4.21875 -6.44531,0 -9.72656,-3.35938 -3.24219,-3.39844 -3.24219,-13.51562 0,-1.21094 0.0391,-3.39844 0.0781,-2.1875 0.0781,-3.82813 0,-4.33593 -0.74219,-13.82812 l 10.89844,-0.39063 q -0.625,7.5 -0.625,14.21875 0,9.57032 1.40625,12.89063 1.44531,3.32031 5.625,3.32031 4.57031,0 7.89063,-2.1875 0,-20.54687 -0.46875,-27.89062 l 10.54687,-0.35157 q -0.39062,7.38282 -0.39062,19.14063 0,8.71094 1.05468,18.00781 z m 34.10157,-37.07031 -2.26563,9.14062 q -2.89062,-1.17187 -5.85937,-1.17187 -5.74219,0 -7.57813,5.15625 0,15.58594 0.23438,23.98437 h -10.39063 q 0.66406,-11.75781 0.66406,-19.21875 0,-9.29687 -1.95312,-17.61718 l 9.96094,-1.09375 q 0.66406,4.29687 0.66406,5.03906 h 0.625 q 3.59375,-5.50781 9.57031,-5.50781 2.8125,0 6.32813,1.28906 z m 30.82031,0 -2.26563,9.14062 q -2.89062,-1.17187 -5.85937,-1.17187 -5.74219,0 -7.57813,5.15625 0,15.58594 0.23438,23.98437 h -10.39063 q 0.66407,-11.75781 0.66407,-19.21875 0,-9.29687 -1.95313,-17.61718 l 9.96094,-1.09375 q 0.66406,4.29687 0.66406,5.03906 h 0.625 q 3.59375,-5.50781 9.57031,-5.50781 2.8125,0 6.32813,1.28906 z m 42.69531,17.69531 q 0,9.84375 -6.05469,15.39063 -6.05468,5.54687 -14.25781,5.54687 -7.8125,0 -13.39844,-5.03906 -5.58593,-5.07813 -5.58593,-14.25781 0,-9.88282 6.09375,-15.46875 6.09375,-5.58594 14.29687,-5.58594 7.77344,0 13.32031,5.11719 5.58594,5.07812 5.58594,14.29687 z m -10.19531,1.17188 q 0,-5.66407 -2.65625,-9.49219 -2.65625,-3.86719 -6.91406,-3.86719 -4.14063,0 -6.75782,3.59375 -2.57812,3.59375 -2.57812,8.98438 0,5.66406 2.65625,9.53125 2.65625,3.82812 6.91406,3.82812 4.14063,0 6.71875,-3.59375 2.61719,-3.59375 2.61719,-8.98437 z m 74.64844,-18.86719 q 0,2.22656 -6.52344,18.28125 -6.48438,16.05469 -6.48438,18.82812 h -9.10156 q 0,-1.79687 -3.20312,-11.05468 -3.98438,-11.5625 -5.07813,-15.74219 h -0.625 q -1.01562,4.02344 -4.84375,15.54687 -3.08594,9.14063 -3.08594,11.25 h -9.14062 q 0,-2.38281 -6.21094,-18.98437 -6.17187,-16.64063 -6.17187,-18.125 h 11.25 q 0,1.60156 3.39843,13.4375 3.4375,11.79687 3.4375,14.02344 h 0.58594 q 0,-2.69532 3.90625,-13.98438 3.90625,-11.32812 3.90625,-13.47656 h 9.17969 q 0,1.48437 3.78906,13.47656 3.82813,11.99219 3.82813,13.98438 h 0.54687 q 0,-2.1875 3.4375,-13.28125 3.47656,-11.13282 3.47656,-14.17969 z m 32.14843,26.44531 q 0,11.71875 -17.34375,11.71875 -6.32812,0 -11.05468,-1.36719 l 1.32812,-7.69531 q 4.88281,1.75781 9.72656,1.75781 4.6875,0 6.48438,-0.78125 1.83594,-0.78125 1.83594,-2.61718 0,-2.85157 -6.5625,-5.42969 -5.74219,-2.26563 -8.35938,-4.45313 -3.59375,-3.04687 -3.59375,-7.46093 0,-5.19532 3.86719,-8.35938 3.86719,-3.16406 11.25,-3.16406 6.91406,0 10.85937,1.21094 l -1.32812,7.73437 q -4.41406,-1.71875 -9.53125,-1.71875 -6.25,0 -6.25,3.20313 0,1.64062 1.32812,2.65625 1.32813,0.97656 5.42969,2.5 5.66406,2.07031 8.24219,4.25781 3.67187,3.125 3.67187,8.00781 z"
       inkscape:path-effect="#path-effect462" />
  </g>
</svg>
